<?xml version="1.0" encoding="UTF-8"?>
<svg version="1.1" xmlns="http://www.w3.org/2000/svg" width="98" height="60">
<path d="M0 0 C2.64 0 5.28 0 8 0 C8.33 0.99 8.66 1.98 9 3 C9.86625 2.835 10.7325 2.67 11.625 2.5 C17.67952158 1.62434605 23.90090631 1.72202522 30 2 C31 3 31 3 31.11352539 4.85766602 C31.10828857 5.64842529 31.10305176 6.43918457 31.09765625 7.25390625 C31.09443359 8.10791016 31.09121094 8.96191406 31.08789062 9.84179688 C31.07532227 11.18854492 31.07532227 11.18854492 31.0625 12.5625 C31.05798828 13.46419922 31.05347656 14.36589844 31.04882812 15.29492188 C31.03700225 17.53001314 31.0205222 19.76497437 31 22 C26.73173127 22 26.06117568 21.62386487 23 19 C20.74487615 22.37908445 20.74487615 22.37908445 19 26 C19.49154083 28.72897167 19.49154083 28.72897167 21 31 C21.66 32.32 22.32 33.64 23 35 C23 31.04 23 27.08 23 23 C25.31 23.66 27.62 24.32 30 25 C30.495 32.425 30.495 32.425 31 40 C32.32 40 33.64 40 35 40 C35 34.39 35 28.78 35 23 C37.31 23.66 39.62 24.32 42 25 C42 30.94 42 36.88 42 43 C35.98682787 46.00658607 32.25731384 46.94758221 25.5625 45 C24.716875 44.67 23.87125 44.34 23 44 C22.34 44.66 21.68 45.32 21 46 C17.375 46.125 17.375 46.125 14 46 C13.87625 45.4225 13.7525 44.845 13.625 44.25 C12.98827964 41.9578067 12.08738327 40.11080282 11 38 C10.32033324 36.33859237 9.65061095 34.67299959 9 33 C7.081875 33.0309375 7.081875 33.0309375 5.125 33.0625 C1.25 33.125 1.25 33.125 -1 32 C-1.99 32 -2.98 32 -4 32 C-3.773125 32.53625 -3.54625 33.0725 -3.3125 33.625 C-2.84375133 37.1874899 -4.12331662 38.99730658 -6 42 C-8.375 44.4375 -8.375 44.4375 -11 46 C-13.6875 45.9375 -13.6875 45.9375 -16 45 C-18.35049617 41.47425575 -18.32551176 40.15027493 -18 36 C-17 32.625 -17 32.625 -16 30 C-16.99 29.67 -17.98 29.34 -19 29 C-18.505 27.515 -18.505 27.515 -18 26 C-14.4375 24.8125 -14.4375 24.8125 -11 24 C-10.8453125 22.88625 -10.8453125 22.88625 -10.6875 21.75 C-9.95088361 18.80353443 -8.9141558 17.31293826 -7 15 C-5.34047865 11.68095731 -4.09114034 8.29620612 -3 4.75 C-2 2 -2 2 0 1 C0 0.67 0 0.34 0 0 Z M11 8 C11 8.66 11 9.32 11 10 C11.66 9.67 12.32 9.34 13 9 C12.34 8.67 11.68 8.34 11 8 Z M13 10 C13 13 13 13 13 13 Z M3 17 C4 19 4 19 4 19 Z M-15 31 C-14 33 -14 33 -14 33 Z M24 40 C25 42 25 42 25 42 Z " fill="#AB151A" transform="translate(19,12)"/>
<path d="M0 0 C0.144375 0.7425 0.28875 1.485 0.4375 2.25 C0.762635 3.8395489 1.1064955 5.425982 1.5 7 C2 9 2 9 2.4375 11.6875 C2.623125 12.450625 2.80875 13.21375 3 14 C3.66 14.33 4.32 14.66 5 15 C4.67 15.66 4.34 16.32 4 17 C4.66 17.33 5.32 17.66 6 18 C5.505 20.475 5.505 20.475 5 23 C3.02 23 1.04 23 -1 23 C-1.33 22.01 -1.66 21.02 -2 20 C-4.01508358 19.26676204 -4.01508358 19.26676204 -6 19 C-6.33 19.66 -6.66 20.32 -7 21 C-9 23 -9 23 -11.6015625 23.1953125 C-12.59929687 23.17210938 -13.59703125 23.14890625 -14.625 23.125 C-16.12933594 23.09792969 -16.12933594 23.09792969 -17.6640625 23.0703125 C-18.43492188 23.04710938 -19.20578125 23.02390625 -20 23 C-21.20628008 20.66785852 -22.1654738 18.50357861 -23 16 C-23 18.64 -23 21.28 -23 24 C-25.31 24 -27.62 24 -30 24 C-29.67 16.41 -29.34 8.82 -29 1 C-18 1 -18 1 -14 4 C-12.511249 8.12269508 -13.27881952 11.75304829 -14 16 C-14 16.66 -14 17.32 -14 18 C-13.34 18 -12.68 18 -12 18 C-12.04125 16.906875 -12.0825 15.81375 -12.125 14.6875 C-12 11 -12 11 -10 8 C-9.9071875 6.7625 -9.9071875 6.7625 -9.8125 5.5 C-9 3 -9 3 -5.5625 1.1875 C-2 0 -2 0 0 0 Z M-24 6 C-24 7.32 -24 8.64 -24 10 C-22.35 9.67 -20.7 9.34 -19 9 C-19 8.01 -19 7.02 -19 6 C-20.65 6 -22.3 6 -24 6 Z M-5 11 C-5 11.99 -5 12.98 -5 14 C-4.01 13.67 -3.02 13.34 -2 13 C-2.33 12.34 -2.66 11.68 -3 11 C-3.66 11 -4.32 11 -5 11 Z M-14 19 C-13 21 -13 21 -13 21 Z " fill="#C81920" transform="translate(91,35)"/>
<path d="M0 0 C2.31 0.66 4.62 1.32 7 2 C7.33 6.95 7.66 11.9 8 17 C9.32 17 10.64 17 12 17 C12 11.39 12 5.78 12 0 C14.31 0.66 16.62 1.32 19 2 C19 7.94 19 13.88 19 20 C12.98682787 23.00658607 9.25731384 23.94758221 2.5625 22 C1.716875 21.67 0.87125 21.34 0 21 C-0.66 21.66 -1.32 22.32 -2 23 C-5.625 23.125 -5.625 23.125 -9 23 C-9.12375 22.4225 -9.2475 21.845 -9.375 21.25 C-10.01172036 18.9578067 -10.91261673 17.11080282 -12 15 C-13.54566807 11.56518206 -14 9.87990967 -14 6 C-9 2 -9 2 -5 2 C-5 2.66 -5 3.32 -5 4 C-4.34 4.33 -3.68 4.66 -3 5 C-2.67 5.99 -2.34 6.98 -2 8 C-1.34 9.32 -0.68 10.64 0 12 C0 8.04 0 4.08 0 0 Z M1 17 C2 19 2 19 2 19 Z " fill="#CB191F" transform="translate(42,35)"/>
<path d="M0 0 C11 0 11 0 15 3 C17.00029493 8.53927828 15.18440153 14.41639279 14 20 C11.625 20.125 11.625 20.125 9 20 C7 18 7 18 6 15 C6 17.64 6 20.28 6 23 C3.69 23 1.38 23 -1 23 C-0.67 15.41 -0.34 7.82 0 0 Z M5 5 C5 6.32 5 7.64 5 9 C6.65 8.67 8.3 8.34 10 8 C10 7.01 10 6.02 10 5 C8.35 5 6.7 5 5 5 Z " fill="#D61A22" transform="translate(62,36)"/>
<path d="M0 0 C2.64 0 5.28 0 8 0 C9.1875 2.75 9.1875 2.75 10 6 C9.0394243 7.36201032 8.03212208 8.69137408 7 10 C6.21954438 11.84155452 5.47088786 13.69682191 4.75 15.5625 C2.10903589 21.56469115 2.10903589 21.56469115 -1.625 23.1875 C-5 24 -5 24 -8 24 C-8.33 24.66 -8.66 25.32 -9 26 C-10.1875 23.75 -10.1875 23.75 -11 21 C-9.75 18.9375 -9.75 18.9375 -8 17 C-5.85619624 13.09071078 -4.3097182 9.00658416 -3 4.75 C-2 2 -2 2 0 1 C0 0.67 0 0.34 0 0 Z " fill="#A21013" transform="translate(19,12)"/>
<path d="M0 0 C0.61875 0.165 1.2375 0.33 1.875 0.5 C6.25470729 1.20075317 10.57428989 1.07734251 15 1 C14.01 1.33 13.02 1.66 12 2 C12.3403125 2.804375 12.3403125 2.804375 12.6875 3.625 C13.15624867 7.1874899 11.87668338 8.99730658 10 12 C7.625 14.4375 7.625 14.4375 5 16 C2.3125 15.9375 2.3125 15.9375 0 15 C-2.35049617 11.47425575 -2.32551176 10.15027493 -2 6 C-1 2.625 -1 2.625 0 0 Z M1 1 C2 3 2 3 2 3 Z " fill="#970F12" transform="translate(3,42)"/>
<path d="M0 0 C2.475 0.495 2.475 0.495 5 1 C5.33 6.28 5.66 11.56 6 17 C5.34 17 4.68 17 4 17 C4 17.99 4 18.98 4 20 C4.66 20.33 5.32 20.66 6 21 C3.5625 20.625 3.5625 20.625 1 20 C-0.1482685 17.703463 -0.11561175 16.41686833 -0.09765625 13.8671875 C-0.09443359 13.06152344 -0.09121094 12.25585938 -0.08789062 11.42578125 C-0.07951172 10.58402344 -0.07113281 9.74226563 -0.0625 8.875 C-0.05798828 8.02550781 -0.05347656 7.17601562 -0.04882812 6.30078125 C-0.03702874 4.20049091 -0.01909306 2.1002367 0 0 Z " fill="#E21D24" transform="translate(44,36)"/>
<path d="M0 0 C1.5 1.375 1.5 1.375 3 3 C3 3.66 3 4.32 3 5 C3.66 5.33 4.32 5.66 5 6 C5 6.99 5 7.98 5 9 C3.04109119 10.39300182 1.0360882 11.72245446 -1 13 C-2.79394446 14.62351109 -2.79394446 14.62351109 -4 16 C-4.66 15.67 -5.32 15.34 -6 15 C-4 10 -2 5 0 0 Z " fill="#E41B23" transform="translate(27,17)"/>
<path d="M0 0 C2.31 0 4.62 0 7 0 C4.82575883 2.50037734 3.26954202 3.43628586 0 4 C0 2.68 0 1.36 0 0 Z " fill="#E21C23" transform="translate(1,38)"/>
<path d="M0 0 C0.33 0.66 0.66 1.32 1 2 C0.34 1.67 -0.32 1.34 -1 1 C-0.67 0.67 -0.34 0.34 0 0 Z " fill="#000000" transform="translate(10,56)"/>
<path d="M0 0 C2 1 2 1 2 1 Z " fill="#000000" transform="translate(60,35)"/>
<path d="" fill="#000000" transform="translate(0,0)"/>
<path d="" fill="#000000" transform="translate(0,0)"/>
<path d="" fill="#000000" transform="translate(0,0)"/>
<path d="" fill="#000000" transform="translate(0,0)"/>
<path d="" fill="#000000" transform="translate(0,0)"/>
<path d="" fill="#000000" transform="translate(0,0)"/>
<path d="" fill="#000000" transform="translate(0,0)"/>
<path d="" fill="#000000" transform="translate(0,0)"/>
<path d="" fill="#000000" transform="translate(0,0)"/>
<path d="" fill="#000000" transform="translate(0,0)"/>
<path d="" fill="#000000" transform="translate(0,0)"/>
<path d="" fill="#000000" transform="translate(0,0)"/>
<path d="" fill="#000000" transform="translate(0,0)"/>
<path d="" fill="#000000" transform="translate(0,0)"/>
<path d="" fill="#000000" transform="translate(0,0)"/>
<path d="" fill="#000000" transform="translate(0,0)"/>
<path d="" fill="#000000" transform="translate(0,0)"/>
<path d="" fill="#000000" transform="translate(0,0)"/>
<path d="" fill="#000000" transform="translate(0,0)"/>
<path d="" fill="#000000" transform="translate(0,0)"/>
<path d="" fill="#000000" transform="translate(0,0)"/>
<path d="" fill="#000000" transform="translate(0,0)"/>
<path d="" fill="#000000" transform="translate(0,0)"/>
<path d="" fill="#000000" transform="translate(0,0)"/>
<path d="" fill="#000000" transform="translate(0,0)"/>
<path d="" fill="#000000" transform="translate(0,0)"/>
<path d="" fill="#000000" transform="translate(0,0)"/>
<path d="" fill="#000000" transform="translate(0,0)"/>
<path d="" fill="#000000" transform="translate(0,0)"/>
<path d="" fill="#000000" transform="translate(0,0)"/>
<path d="" fill="#000000" transform="translate(0,0)"/>
<path d="" fill="#000000" transform="translate(0,0)"/>
<path d="" fill="#000000" transform="translate(0,0)"/>
<path d="" fill="#000000" transform="translate(0,0)"/>
<path d="" fill="#000000" transform="translate(0,0)"/>
<path d="" fill="#000000" transform="translate(0,0)"/>
<path d="" fill="#000000" transform="translate(0,0)"/>
<path d="" fill="#000000" transform="translate(0,0)"/>
<path d="" fill="#000000" transform="translate(0,0)"/>
<path d="" fill="#000000" transform="translate(0,0)"/>
<path d="" fill="#000000" transform="translate(0,0)"/>
<path d="" fill="#000000" transform="translate(0,0)"/>
<path d="" fill="#000000" transform="translate(0,0)"/>
<path d="" fill="#000000" transform="translate(0,0)"/>
<path d="" fill="#000000" transform="translate(0,0)"/>
<path d="" fill="#000000" transform="translate(0,0)"/>
<path d="" fill="#000000" transform="translate(0,0)"/>
<path d="" fill="#000000" transform="translate(0,0)"/>
<path d="" fill="#000000" transform="translate(0,0)"/>
<path d="" fill="#000000" transform="translate(0,0)"/>
<path d="" fill="#000000" transform="translate(0,0)"/>
<path d="" fill="#000000" transform="translate(0,0)"/>
<path d="" fill="#000000" transform="translate(0,0)"/>
<path d="" fill="#000000" transform="translate(0,0)"/>
<path d="" fill="#000000" transform="translate(0,0)"/>
<path d="" fill="#000000" transform="translate(0,0)"/>
</svg>
