<svg width="303" height="316" viewBox="0 0 303 316" fill="none" xmlns="http://www.w3.org/2000/svg">
<path d="M171.843 201C174.124 203.699 175.5 207.189 175.5 211C175.5 219.56 168.56 226.5 160 226.5H107.55C128.091 222.304 149.921 214.346 171.843 201Z" fill="#B11216"/>
<path d="M221.696 266.002C226.683 277.985 221.012 291.741 209.029 296.728C197.047 301.714 183.29 296.043 178.304 284.061L148.795 213.154C162.305 207.083 176.013 199.146 189.631 188.952L221.696 266.002ZM99.9629 80.0483C109.025 60.8315 136.579 61.4691 144.742 81.0845L167.636 136.098C159.021 143.478 145.865 153.658 128.444 164.12L96.6514 87.0708L99.9629 80.0483Z" fill="#EC1D25"/>
<path d="M30.1602 226.028C44.1131 229.227 60.9437 231.086 79.5391 230.094L53.0869 287.029C46.748 296.607 34.1753 300.332 23.4814 295.289C11.7432 289.753 6.71478 275.749 12.25 264.011L30.1602 226.028ZM99.4678 79.0508C108.529 59.834 136.084 60.4716 144.247 80.0869L146.604 85.749L104.032 177.375C86.3703 186.001 65.769 194.071 42.3926 200.086L99.4678 79.0508Z" fill="#B11216"/>
<path d="M7.6034 217.654C-1.9931 212.684 2.34745 206.637 8.04495 204.691C113.656 188.617 173.894 127 177.5 123C180.586 119.576 175.407 115.362 174.12 114.251C161.226 103.738 155.342 97.6891 154.011 95.9788C146.871 85.0441 156.453 81.8491 162.137 81.6185C185.448 79.6804 234.859 75.5446 246.018 74.5053C257.177 73.466 260.928 80.6443 261.889 88.0824C264.865 134.807 262.704 163.803 260.276 176.217C257.453 183.237 249.461 180.438 246.763 177.762L229.889 161.894C226.5 159 224 153.765 219 159C138.928 242.838 47.4459 233.88 7.6034 217.654Z" fill="url(#paint0_linear_364_972)"/>
<defs>
<linearGradient id="paint0_linear_364_972" x1="70.5" y1="220" x2="251.5" y2="128.5" gradientUnits="userSpaceOnUse">
<stop stop-color="#EC1D25"/>
<stop offset="1" stop-color="#861015"/>
</linearGradient>
</defs>
</svg>
